# xmcd
#
# Track frame offsets: 
#        150
#        13719
#        27967
#        44200
#        55719
#        72337
#        88634
#        101021
#        126053
#        137014
#        149991
#        161550
#        178347
#        193204
#
# Disc length: 2761 seconds
#
# Revision: 1
# Processed by: cddbd v1.5.2PL0 Copyright (c) Steve Scherf et al.
# Submitted via: ExactAudioCopy v1.0b1
#
DISCID=d70ac70e
DTITLE=Kenny 'Blue' Ray - Blues Obsession
DYEAR=2000
DGENRE=Blues
TTITLE0=Sometimey Woman
TTITLE1=Kool Aid Part 2
TTITLE2=Believe Me
TTITLE3=$45 Buzz
TTITLE4=Blind Love
TTITLE5=All My Whole Life
TTITLE6=Blues Obsession
TTITLE7=Found Me A New Love
TTITLE8=Night Cap
TTITLE9=Don't Let My Baby Ride
TTITLE10=San Ho Zay
TTITLE11=Let's Get High
TTITLE12=Little Voice
TTITLE13=In The Open
EXTD=
EXTT0=
EXTT1=
EXTT2=
EXTT3=
EXTT4=
EXTT5=
EXTT6=
EXTT7=
EXTT8=
EXTT9=
EXTT10=
EXTT11=
EXTT12=
EXTT13=
PLAYORDER=
